<?xml version="1.0" encoding="UTF-8" standalone="no"?>
<!-- Created with Inkscape (http://www.inkscape.org/) -->

<svg
   width="512"
   height="512"
   viewBox="0 0 512 512"
   version="1.1"
   id="svg1"
   xmlns="http://www.w3.org/2000/svg"
   xmlns:svg="http://www.w3.org/2000/svg">
  <defs
     id="defs1" />
  <g
     id="layer1">
    <path
       d="m 434.60246,83.35986 q 90.89357,132.95597 75.42231,291.53619 0,0.4835 -0.48347,0.96697 -58.50062,43.99633 -128.12124,64.78582 h -0.48346 q -0.96693,0 -1.45043,-0.48347 -14.98776,-20.78949 -26.10772,-42.54594 v -0.96693 q 0,-1.45043 0.96697,-1.45043 21.75641,-8.21909 40.1285,-18.85559 0.4835,-0.48346 0.4835,-1.45043 0,-0.96693 -0.4835,-1.4504 -1.9339,-1.45043 -8.21909,-6.28519 h -0.48347 l -0.48346,-0.4835 -0.48347,0.4835 q -61.88499,28.52507 -128.60471,28.52507 -66.23625,0 -129.08817,-28.52507 l -0.48346,-0.4835 q -0.48351,0 -0.48351,0.4835 0,0 -0.48346,0 -5.80169,4.83476 -8.21909,6.28519 -0.48347,0.48347 -0.48347,1.4504 0,0.4835 0.96693,1.45043 19.33905,11.11996 39.64507,18.85559 1.45044,0 1.45044,1.45043 l -0.48351,0.96693 q -11.11992,21.75645 -26.10771,42.54594 -0.48346,0.48347 -1.45043,0.48347 h -0.48347 Q 61.842266,419.37588 2.8581408,375.86302 L 1.8911737,374.89605 Q -12.129614,218.24977 77.796952,83.35986 q 0,-0.96695 0.483501,-0.96695 Q 126.14458,60.153 182.71131,50.48348 L 183.19481,50 q 0.48347,0 1.45043,0.96695 7.7356,14.02081 13.05386,26.5912 29.00858,-4.35129 58.01716,-4.35129 29.97551,0 58.98409,4.35129 5.31823,-12.57039 13.05385,-26.5912 Q 328.72117,50 329.20464,50 l 0.48346,0.48348 q 56.08326,9.66952 103.94743,31.90943 0.96693,0 0.96693,0.96695 z M 171.10789,316.39543 q 19.33905,0 32.3929,-14.98776 13.53736,-14.98775 13.53736,-36.2607 0.48347,-21.27299 -13.05385,-36.26074 -13.53736,-15.47126 -32.87641,-15.47126 -19.33906,0 -32.87638,15.47126 -13.05386,14.98775 -13.05386,36.26074 0,21.27295 13.53733,36.2607 13.53735,14.98776 32.39291,14.98776 z m 170.18367,0 q 19.33905,0 32.87638,-14.98776 13.53732,-14.98775 13.53732,-36.2607 0.4835,-20.78949 -13.53732,-36.26074 -13.53733,-15.47126 -32.87638,-15.47126 -19.33905,0 -32.87641,15.47126 -13.05386,14.98775 -13.05386,36.26074 0,21.27295 13.53736,36.2607 13.53732,14.98776 32.39291,14.98776 z"
       id="text1"
       style="font-size:133.333px;font-family:'0xProto Nerd Font';-inkscape-font-specification:'0xProto Nerd Font';white-space:pre;inline-size:160.275;stroke-width:3.62608"
       aria-label="" />
  </g>
</svg>
